<?xml version="1.0" encoding="UTF-8"?><svg xmlns="http://www.w3.org/2000/svg" xmlns:xlink="http://www.w3.org/1999/xlink" fill-opacity="1" color-rendering="auto" color-interpolation="auto" text-rendering="auto" stroke="black" stroke-linecap="square" width="1502" stroke-miterlimit="10" shape-rendering="auto" stroke-opacity="1" fill="black" stroke-dasharray="none" font-weight="normal" stroke-width="1" height="1091" font-family="'Dialog'" font-style="normal" stroke-linejoin="miter" font-size="12px" stroke-dashoffset="0" image-rendering="auto">
  <!--Generated by ySVG 2.5-->
  <defs id="genericDefs"/>
  <g>
    <g fill="white" text-rendering="geometricPrecision" shape-rendering="geometricPrecision" transform="translate(508,243)" stroke="white">
      <rect x="-508" width="1502" height="1091" y="-243" clip-path="url(#clipPath2)" stroke="none"/>
    </g>
    <g fill="rgb(255,153,0)" text-rendering="geometricPrecision" shape-rendering="geometricPrecision" transform="matrix(1,0,0,1,508,243)" stroke="rgb(255,153,0)">
      <rect x="4.7205" width="186" height="65" y="-22.5685" clip-path="url(#clipPath2)" stroke="none"/>
    </g>
    <g text-rendering="geometricPrecision" stroke-miterlimit="1.45" shape-rendering="geometricPrecision" transform="matrix(1,0,0,1,508,243)" stroke-linecap="butt">
      <rect fill="none" x="4.7205" width="186" height="65" y="-22.5685" clip-path="url(#clipPath2)"/>
      <text x="63.0301" xml:space="preserve" y="14.6454" clip-path="url(#clipPath2)" font-family="sans-serif" stroke="none">Spot webtool</text>
    </g>
    <g text-rendering="geometricPrecision" shape-rendering="geometricPrecision" transform="matrix(1.4743,0,0,1.4423,15.5563,182.0668)">
      <g clip-path="url(#clipPath3)">
        <svg xmlns:svg="http://www.w3.org/2000/svg" xmlns:sodipodi="http://sodipodi.sourceforge.net/DTD/sodipodi-0.dtd" xmlns:inkscape="http://www.inkscape.org/namespaces/inkscape" xmlns:dc="http://purl.org/dc/elements/1.1/" xmlns:cc="http://web.resource.org/cc/" xmlns:rdf="http://www.w3.org/1999/02/22-rdf-syntax-ns#" opacity="1" writing-mode="lr-tb" stop-color="rgb(0, 0, 0)" shape-rendering="auto" glyph-orientation-horizontal="0deg" color-profile="auto" lighting-color="rgb(255, 255, 255)" color="rgb(0, 0, 0)" font-weight="400" alignment-baseline="auto" font-style="normal" version="1.0" color-interpolation-filters="linearrgb" text-anchor="start" stroke-linecap="butt" color-interpolation="srgb" font-variant="normal" word-spacing="normal" fill-opacity="1" text-rendering="auto" clip-path="none" text-decoration="none" letter-spacing="normal" glyph-orientation-vertical="auto" display="inline" font-size-adjust="none" overflow="visible" fill="rgb(0, 0, 0)" font-stretch="normal" stroke-dasharray="none" inkscape:version="0.45.1" id="svg1.svg2" stroke-miterlimit="4" stop-opacity="1" color-rendering="auto" font-size="12" sodipodi:docbase="C:\Daten\alberts\projects\yfx" pointer-events="visiblepainted" mask="none" direction="ltr" baseline-shift="baseline" sodipodi:docname="uml_actor.svg" enable-background="accumulate" fill-rule="nonzero" image-rendering="auto" stroke-dashoffset="0" inkscape:output_extension="org.inkscape.output.svg.inkscape" marker-end="none" width="41" clip="auto" cursor="auto" stroke="none" filter="none" visibility="visible" kerning="auto" stroke-width="1" font-family="&quot;Arial&quot;,&quot;Helvetica&quot;,sans-serif" flood-opacity="1" clip-rule="nonzero" src="none" height="68.997391" unicode-bidi="normal" sodipodi:version="0.32" stroke-linejoin="miter" stroke-opacity="1" flood-color="rgb(0, 0, 0)" dominant-baseline="auto" marker-start="none" marker-mid="none">
  <defs id="svg1.defs4">
            <clipPath clipPathUnits="userSpaceOnUse" id="clipPath1">
              <path d="M0 0 L1502 0 L1502 1091 L0 1091 L0 0 Z"/>
            </clipPath>
            <clipPath clipPathUnits="userSpaceOnUse" id="clipPath2">
              <path d="M-508 -243 L994 -243 L994 848 L-508 848 L-508 -243 Z"/>
            </clipPath>
            <clipPath clipPathUnits="userSpaceOnUse" id="clipPath3">
              <path d="M-10.5517 -126.2376 L1008.2369 -126.2376 L1008.2369 630.2167 L-10.5517 630.2167 L-10.5517 -126.2376 Z"/>
            </clipPath>
            <clipPath clipPathUnits="userSpaceOnUse" id="clipPath4">
              <path d="M-294.5394 -96.314 L1333.2781 -96.314 L1333.2781 994.686 L-294.5394 994.686 L-294.5394 -96.314 Z"/>
            </clipPath>
            <clipPath clipPathUnits="userSpaceOnUse" id="clipPath5">
              <path d="M-284.9524 -270.458 L1217.0476 -270.458 L1217.0476 820.542 L-284.9524 820.542 L-284.9524 -270.458 Z"/>
            </clipPath>
          </defs>
  
  <metadata id="svg1.metadata7">
    
  </metadata>
  <g inkscape:groupmode="layer" id="svg1.layer1" transform="translate(-29.5,-42.959476)" inkscape:label="Ebene 1">
    <a id="svg1.a3142" transform="matrix(1.0873906,0,0,1,-4.4741999,0)">
      <path transform="translate(11.586889,5.2908993)" style="fill:none;fill-rule:evenodd;stroke:#000000;stroke-width:1px;stroke-linecap:butt;stroke-linejoin:miter;stroke-opacity:1" sodipodi:cx="38.509369" sodipodi:cy="47.36993" sodipodi:rx="8.5197716" id="svg1.path2160" d="M 47.02914 47.36993 A 8.5197716 9.2013531 0 1 1  29.989597,47.36993 A 8.5197716 9.2013531 0 1 1  47.02914 47.36993 z" sodipodi:ry="9.2013531" sodipodi:type="arc"/>
    </a>
    <path style="fill:none" sodipodi:cx="43.962021" sodipodi:cy="48.392303" d="M 47.71072 48.392303 A 3.7486994 0 0 1 1  40.213321,48.392303 A 3.7486994 0 0 1 1  47.71072 48.392303 z" id="svg1.path3134" sodipodi:rx="3.7486994" sodipodi:ry="0" sodipodi:type="arc"/>
    <path style="fill:none;fill-rule:evenodd;stroke:#000000;stroke-width:1.24319649px;stroke-linecap:butt;stroke-linejoin:miter;stroke-opacity:1" d="M 50,61.33709 C 50,91.363211 50,92.247838 50,92.247838" id="svg1.path3136"/>
    <path style="fill:none;fill-rule:evenodd;stroke:#000000;stroke-width:1px;stroke-linecap:butt;stroke-linejoin:miter;stroke-opacity:1" d="M 69.760668,72.362183 C 69.760668,72.362183 69.760668,72.362183 50.239332,72.362183 C 30.239332,72.362183 30.239332,72.362183 30.239332,72.362183 L 30.239332,72.362183" id="svg1.path3138"/>
    <path style="fill:none;fill-rule:evenodd;stroke:#000000;stroke-width:1px;stroke-linecap:butt;stroke-linejoin:miter;stroke-opacity:1" d="M 30,111.45687 C 30,111.45687 30,111.45687 50,92.013532 C 70,111.45687 70,111.45687 70,111.45687" id="svg1.path3140"/>
  </g>
</svg>
      </g>
    </g>
    <g font-size="13px" stroke-linecap="butt" transform="matrix(1,0,0,1,508,243)" text-rendering="geometricPrecision" font-family="sans-serif" shape-rendering="geometricPrecision" stroke-miterlimit="1.45">
      <text x="-473.0655" xml:space="preserve" y="57.4443" clip-path="url(#clipPath2)" stroke="none">Lab</text>
    </g>
    <g text-rendering="geometricPrecision" shape-rendering="geometricPrecision" transform="matrix(0.9227,0,0,1,271.7738,96.314)">
      <g clip-path="url(#clipPath4)">
        <svg xml:space="preserve" opacity="1" writing-mode="lr-tb" stop-color="rgb(0, 0, 0)" shape-rendering="auto" glyph-orientation-horizontal="0deg" color-profile="auto" lighting-color="rgb(255, 255, 255)" color="rgb(0, 0, 0)" font-weight="400" alignment-baseline="auto" font-style="normal" version="1.1" color-interpolation-filters="linearrgb" text-anchor="start" stroke-linecap="butt" color-interpolation="srgb" font-variant="normal" word-spacing="normal" fill-opacity="1" text-rendering="auto" clip-path="none" text-decoration="none" letter-spacing="normal" viewBox="-0.811 -0.063 65 53" glyph-orientation-vertical="auto" display="inline" font-size-adjust="none" overflow="visible" fill="rgb(0, 0, 0)" font-stretch="normal" stroke-dasharray="none" stroke-miterlimit="4" stop-opacity="1" color-rendering="auto" font-size="12" pointer-events="visiblepainted" mask="none" direction="ltr" baseline-shift="baseline" enable-background="new -0.811 -0.063 65 53" fill-rule="nonzero" image-rendering="auto" stroke-dashoffset="0" width="65px" marker-end="none" clip="auto" cursor="auto" stroke="none" filter="none" visibility="visible" kerning="auto" stroke-width="1" font-family="&quot;Arial&quot;,&quot;Helvetica&quot;,sans-serif" flood-opacity="1" clip-rule="nonzero" src="none" height="53px" unicode-bidi="normal" stroke-linejoin="miter" stroke-opacity="1" flood-color="rgb(0, 0, 0)" dominant-baseline="auto" marker-start="none" x="0px" marker-mid="none" y="0px">
<defs>
</defs>
<linearGradient gradientTransform="matrix(1 0 0 1 -195.2002 -770.8008)" x1="220.9624" x2="220.9624" gradientUnits="userSpaceOnUse" y1="824.415" y2="801.0922" id="svg2.SVGID_1_">
	<stop offset="0.0319" style="stop-color:#808080"/>
	<stop offset="0.1229" style="stop-color:#939393"/>
	<stop offset="0.2702" style="stop-color:#ABABAB"/>
	<stop offset="0.4266" style="stop-color:#BCBCBC"/>
	<stop offset="0.5968" style="stop-color:#C6C6C6"/>
	<stop offset="0.8061" style="stop-color:#C9C9C9"/>
</linearGradient>
<path fill="url(#svg2.SVGID_1_)" d="M51.333,51.918c0.195,0.459-0.053,0.836-0.553,0.836H0.58c-0.5,0-0.604-0.272-0.232-0.605  l8.023-7.191c0.373-0.334,1.086-0.605,1.586-0.605h37.255c0.498,0,1.065,0.377,1.265,0.836L51.333,51.918z"/>
<path stroke-linecap="round" fill="none" stroke-linejoin="round" d="  M51.333,51.918c0.195,0.459-0.053,0.836-0.553,0.836H0.58c-0.5,0-0.604-0.272-0.232-0.605l8.023-7.191  c0.373-0.334,1.086-0.605,1.586-0.605h37.255c0.498,0,1.065,0.377,1.265,0.836L51.333,51.918z" stroke="#8D8D8D" stroke-width="0.25" stroke-miterlimit="10"/>
<path fill="#717171" d="M32.117,50.571c0,0.25-0.205,0.454-0.455,0.454H4.024c-0.25,0-0.304-0.139-0.119-0.307l5.638-5.154  c0.184-0.17,0.539-0.309,0.789-0.309h21.332c0.25,0,0.454,0.205,0.454,0.455L32.117,50.571L32.117,50.571z"/>
<path fill="#717171" d="M40.738,50.598c0.086,0.236,0.359,0.428,0.609,0.428h7.465c0.25,0,0.375-0.188,0.279-0.42l-2.049-4.93  c-0.098-0.229-0.379-0.42-0.629-0.42h-7.17c-0.25,0-0.386,0.191-0.301,0.428L40.738,50.598z"/>
<path fill="#717171" d="M32.89,50.571c0,0.25,0.205,0.454,0.455,0.454h6.135c0.25,0,0.382-0.189,0.293-0.426l-0.156-0.409  c-0.089-0.233-0.365-0.421-0.615-0.416l-1.045,0.021c-0.25,0.004-0.509-0.189-0.574-0.432l-0.021-0.082  c-0.065-0.242-0.321-0.439-0.571-0.439h-1.316c-0.25,0-0.444,0.205-0.432,0.453l0.002,0.059c0.016,0.25-0.181,0.455-0.431,0.459  l-1.269,0.021c-0.25,0.006-0.454,0.211-0.454,0.461L32.89,50.571L32.89,50.571z"/>
<path fill="#717171" d="M32.89,47.004c0,0.25,0.205,0.455,0.455,0.455h4.845c0.25,0,0.396-0.195,0.323-0.437l-0.402-1.333  c-0.07-0.238-0.335-0.438-0.585-0.438h-4.181c-0.25,0-0.455,0.205-0.455,0.455V47.004z"/>
<linearGradient gradientTransform="matrix(1 0 0 -1 -488 -1376.627)" x1="535.2017" x2="511.4634" gradientUnits="userSpaceOnUse" y1="-1418.6563" y2="-1418.6563" id="svg2.SVGID_2_">
	<stop offset="0" style="stop-color:#4D4D4D"/>
	<stop offset="1" style="stop-color:#999999"/>
</linearGradient>
<path fill="url(#svg2.SVGID_2_)" d="M47.048,40.514c0,0.965-6.758,1.404-12.371,1.404c-3.889,0-10.914-0.348-11.367-1.267  c0,0.446,0,1.502,0,1.661c0,0.725,4.803,1.234,11.357,1.234c6.554,0,12.381-0.643,12.381-1.361  C47.048,42.028,47.048,40.977,47.048,40.514z"/>
<path fill="#808080" d="M35.179,39.307c6.556,0,11.869,0.584,11.869,1.307c0,0.721-5.313,1.42-11.869,1.42  c-6.701,0-11.869-0.697-11.869-1.42S28.625,39.307,35.179,39.307z"/>
<linearGradient gradientTransform="matrix(1 0 0 -1 -488 -1376.627)" x1="525.7661" x2="520.77" gradientUnits="userSpaceOnUse" y1="-1412.6865" y2="-1412.6865" id="svg2.SVGID_3_">
	<stop offset="0" style="stop-color:#999999"/>
	<stop offset="0.0417" style="stop-color:#8D8D8D"/>
	<stop offset="0.1617" style="stop-color:#717171"/>
	<stop offset="0.2821" style="stop-color:#5D5D5D"/>
	<stop offset="0.4021" style="stop-color:#515151"/>
	<stop offset="0.5212" style="stop-color:#4D4D4D"/>
	<stop offset="0.6202" style="stop-color:#565656"/>
	<stop offset="0.7817" style="stop-color:#6E6E6E"/>
	<stop offset="0.9844" style="stop-color:#969696"/>
	<stop offset="1" style="stop-color:#999999"/>
</linearGradient>
<path fill="url(#svg2.SVGID_3_)" d="M37.734,40.896c0,0-1.477,0.096-2.498,0.096s-2.499-0.096-2.499-0.096v-9.768h4.997V40.896z"/>
<radialGradient gradientTransform="matrix(1.15 0 0 -1 -453.4719 -1376.627)" id="svg2.SVGID_4_" r="24.0778" cx="415.8687" gradientUnits="userSpaceOnUse" cy="-1386.5146">
	<stop offset="0" style="stop-color:#F2F2F2"/>
	<stop offset="1" style="stop-color:#666666"/>
</radialGradient>
<path fill="url(#svg2.SVGID_4_)" d="M9.453,2.122c0-1.1,0.9-2,2-2h48.246c1.1,0,2,0.9,2,2v30.073c0,1.101-0.9,2-2,2H11.453  c-1.1,0-2-0.899-2-2V2.122z"/>
<path stroke-linecap="round" fill="none" stroke-linejoin="round" d="  M9.453,2.122c0-1.1,0.9-2,2-2h48.246c1.1,0,2,0.9,2,2v30.073c0,1.101-0.9,2-2,2H11.453c-1.1,0-2-0.899-2-2V2.122z" stroke="#666666" stroke-width="0.2436" stroke-miterlimit="10"/>
<radialGradient gradientTransform="matrix(1.1935 0 0 -1 -443.5655 -1376.627)" gradientUnits="userSpaceOnUse" r="53.3339" cx="402.1509" id="svg2.SVGID_5_" cy="-1378.3662" fx="444.1083" fy="-1385.5538">
	<stop offset="0" style="stop-color:#4D4D4D"/>
	<stop offset="1" style="stop-color:#999999"/>
</radialGradient>
<path fill="url(#svg2.SVGID_5_)" d="M10.475,3.143c0-1.1,0.9-2,2-2h46.429c1.1,0,2,0.9,2,2v27.805c0,1.1-0.9,2-2,2H12.475  c-1.1,0-2-0.9-2-2V3.143z"/>
<radialGradient gradientTransform="matrix(1.1923 0 0 -1 -443.8286 -1376.627)" id="svg2.SVGID_6_" r="34.1874" cx="402.939" gradientUnits="userSpaceOnUse" cy="-1378.4502">
	<stop offset="0" style="stop-color:#9CD7FF"/>
	<stop offset="1" style="stop-color:#3C89C9"/>
</radialGradient>
<path fill="url(#svg2.SVGID_6_)" d="M11.043,3.598c0-1.1,0.9-2,2-2h45.294c1.1,0,2,0.9,2,2v26.895c0,1.1-0.9,2-2,2H13.043  c-1.1,0-2-0.9-2-2V3.598z"/>
<path fill="#F2F2F2" opacity="0.24" d="M11.043,24.936V3.598c0-1.1,0.9-2,2-2h45.294c1.1,0,2,0.9,2,2v13.539l-23.164,4.94  c-1.064,0.273-2.836,0.547-3.935,0.609L11.043,24.936z"/>
<path fill="#C9C9C9" d="M58.777,46.596c-0.003-0.002-0.005-0.002-0.007,0c-0.188-0.061-0.429-0.254-0.702-0.482  C58.335,46.268,58.578,46.436,58.777,46.596z"/>
<radialGradient gradientTransform="matrix(1 0 0 1 -390.4004 -1211.6016)" id="svg2.SVGID_7_" r="6.3766" cx="450.8638" gradientUnits="userSpaceOnUse" cy="1259.1514">
	<stop offset="0.1939" style="stop-color:#C9C9C9"/>
	<stop offset="0.3299" style="stop-color:#C6C6C6"/>
	<stop offset="0.4405" style="stop-color:#BCBCBC"/>
	<stop offset="0.5421" style="stop-color:#ABABAB"/>
	<stop offset="0.6378" style="stop-color:#939393"/>
	<stop offset="0.697" style="stop-color:#808080"/>
</radialGradient>
<path fill="url(#svg2.SVGID_7_)" d="M58.77,46.596c0.005,0.002,0.007,0.002,0.009,0.002c0.002,0.004,0.006,0.004,0.006,0.004  c0.084,0.023,0.153,0.021,0.213-0.021c0.017-0.008,0.026-0.021,0.037-0.041c0.604-0.119,1.329-0.154,2.197-0.086  c2.032,1.545,3.77,4.625,1.18,5.801c-2.048,0.929-3.543,0.783-4.722-0.485c-0.624-0.675-1.239-1.47-1.729-2.265  C56.226,48.369,56.855,47.061,58.77,46.596z"/>
<radialGradient gradientTransform="matrix(0.9761 0.2173 -0.1478 0.6641 -320.0412 -1031.1759)" id="svg2.SVGID_8_" r="3.8245" cx="603.5698" gradientUnits="userSpaceOnUse" cy="1426.6348">
	<stop offset="0.1939" style="stop-color:#C9C9C9"/>
	<stop offset="0.3739" style="stop-color:#C6C6C6"/>
	<stop offset="0.5203" style="stop-color:#BCBCBC"/>
	<stop offset="0.6549" style="stop-color:#ABABAB"/>
	<stop offset="0.7816" style="stop-color:#939494"/>
	<stop offset="0.8364" style="stop-color:#868787"/>
</radialGradient>
<path fill="url(#svg2.SVGID_8_)" d="M55.96,49.504c-0.893-1.438-1.355-2.869-0.664-3.533c0.244-0.236,0.539-0.422,0.863-0.559  c0.6,0.051,1.307,0.346,1.9,0.691c0.002,0,0.005,0.004,0.007,0.006c0.272,0.229,0.519,0.426,0.702,0.482  C56.855,47.061,56.226,48.369,55.96,49.504z"/>
<radialGradient gradientTransform="matrix(1 0 0 1 -390.4004 -1211.6016)" id="svg2.SVGID_9_" r="3.928" cx="448.7241" gradientUnits="userSpaceOnUse" cy="1259.3271">
	<stop offset="0.1939" style="stop-color:#C9C9C9"/>
	<stop offset="0.3496" style="stop-color:#C6C6C6"/>
	<stop offset="0.4761" style="stop-color:#BCBCBC"/>
	<stop offset="0.5925" style="stop-color:#ABABAB"/>
	<stop offset="0.702" style="stop-color:#939393"/>
	<stop offset="0.7697" style="stop-color:#808080"/>
</radialGradient>
<path fill="url(#svg2.SVGID_9_)" d="M56.16,45.414c1.353-0.564,3.287-0.266,4.963,0.955c0.035,0.025,0.073,0.055,0.109,0.084  c-0.867-0.068-1.818-0.033-2.427,0.086c-0.109-0.105-0.763-0.449-0.744-0.434C57.464,45.758,56.757,45.463,56.16,45.414z"/>
<path fill="none" stroke-width="0.1136" d="M56.16,45.414  c1.353-0.564,3.287-0.266,4.963,0.955c0.035,0.025,0.073,0.055,0.109,0.084c2.032,1.545,3.77,4.627,1.18,5.801  c-2.048,0.93-3.543,0.785-4.722-0.484c-0.624-0.676-1.239-1.471-1.729-2.264c-0.892-1.438-1.354-2.871-0.664-3.533  C55.541,45.734,55.835,45.549,56.16,45.414z" stroke-miterlimit="10" stroke="#717171" stroke-linecap="round"/>
<path fill="none" stroke-width="0.1136" d="M58.777,46.596  c0.083-0.021,0.168-0.041,0.258-0.057c0.604-0.119,1.329-0.154,2.197-0.086" stroke-miterlimit="10" stroke="#717171" stroke-linecap="round"/>
<path fill="none" stroke-width="0.1136" d="M55.958,49.516  c0-0.002,0.002-0.008,0.002-0.012c0.269-1.135,0.896-2.441,2.813-2.908" stroke-miterlimit="10" stroke="#717171" stroke-linecap="round"/>
<path fill="none" stroke-width="0.1136" d="M58.061,46.105  c-0.597-0.35-1.306-0.643-1.901-0.693" stroke-miterlimit="10" stroke="#717171" stroke-linecap="round"/>
<path fill="none" stroke-width="0.1136" d="M58.779,46.598  c0-0.002,0-0.002-0.002-0.002c-0.199-0.16-0.441-0.328-0.709-0.482" stroke-miterlimit="10" stroke="#717171" stroke-linecap="round"/>
<path fill="#4D4D4D" d="M58.259,45.936c0.354,0.264,0.438,0.48,0.548,0.604c-0.091,0.018-0.173,0.033-0.259,0.059  c-0.355-0.393-0.996-0.666-0.955-0.727C57.688,45.729,58.063,45.791,58.259,45.936z"/>
</svg>
      </g>
    </g>
    <g text-rendering="geometricPrecision" shape-rendering="geometricPrecision" transform="matrix(1,0,0,1,284.9524,270.458)">
      <g clip-path="url(#clipPath5)">
        <svg xml:space="preserve" opacity="1" writing-mode="lr-tb" stop-color="rgb(0, 0, 0)" shape-rendering="auto" glyph-orientation-horizontal="0deg" color-profile="auto" lighting-color="rgb(255, 255, 255)" color="rgb(0, 0, 0)" font-weight="400" alignment-baseline="auto" font-style="normal" version="1.1" color-interpolation-filters="linearrgb" text-anchor="start" stroke-linecap="butt" color-interpolation="srgb" font-variant="normal" word-spacing="normal" fill-opacity="1" text-rendering="auto" clip-path="none" text-decoration="none" letter-spacing="normal" viewBox="0 -0.741 36 57" glyph-orientation-vertical="auto" display="inline" font-size-adjust="none" overflow="visible" fill="rgb(0, 0, 0)" font-stretch="normal" stroke-dasharray="none" stroke-miterlimit="4" stop-opacity="1" color-rendering="auto" font-size="12" pointer-events="visiblepainted" mask="none" direction="ltr" baseline-shift="baseline" enable-background="new 0 -0.741 36 57" fill-rule="nonzero" image-rendering="auto" stroke-dashoffset="0" width="36px" marker-end="none" clip="auto" cursor="auto" stroke="none" filter="none" visibility="visible" kerning="auto" stroke-width="1" font-family="&quot;Arial&quot;,&quot;Helvetica&quot;,sans-serif" flood-opacity="1" clip-rule="nonzero" src="none" height="57px" unicode-bidi="normal" stroke-linejoin="miter" stroke-opacity="1" flood-color="rgb(0, 0, 0)" dominant-baseline="auto" marker-start="none" x="0px" marker-mid="none" y="0px">
<defs>
</defs>
<linearGradient gradientTransform="matrix(1 0 0 1 -195.2002 -770.8008)" x1="230.1768" x2="180.3346" gradientUnits="userSpaceOnUse" y1="798.6021" y2="798.6021" id="svg3.SVGID_1_">
	<stop offset="0" style="stop-color:#4D4D4D"/>
	<stop offset="1" style="stop-color:#8D8D8D"/>
</linearGradient>
<rect fill="url(#svg3.SVGID_1_)" width="34.977" y="0.943" height="53.716"/>
<linearGradient gradientTransform="matrix(1 0 0 1 -195.2002 -770.8008)" x1="224.6807" x2="200.6973" gradientUnits="userSpaceOnUse" y1="798.6021" y2="798.6021" id="svg3.SVGID_2_">
	<stop offset="0.0319" style="stop-color:#848484"/>
	<stop offset="0.1202" style="stop-color:#8C8C8C"/>
	<stop offset="0.308" style="stop-color:#969696"/>
	<stop offset="0.5394" style="stop-color:#999999"/>
	<stop offset="0.5501" style="stop-color:#9C9C9C"/>
	<stop offset="0.6256" style="stop-color:#B0B0B0"/>
	<stop offset="0.7118" style="stop-color:#BEBEBE"/>
	<stop offset="0.8178" style="stop-color:#C7C7C7"/>
	<stop offset="1" style="stop-color:#C9C9C9"/>
</linearGradient>
<path fill="url(#svg3.SVGID_2_)" d="M5.497,0.943c7.945-1.258,16.04-1.258,23.983,0c0,17.905,0,35.811,0,53.716  c-7.943,1.258-16.039,1.258-23.983,0C5.497,36.753,5.497,18.848,5.497,0.943z"/>
<path fill="#515151" d="M5.497,14.621c7.995,0,15.989,0,23.983,0c0,13.346,0,26.693,0,40.037c-7.943,1.258-16.039,1.258-23.983,0  C5.497,41.314,5.497,27.967,5.497,14.621z"/>
<path fill="#565656" opacity="0.43" d="M5.497,4.745c7.982-0.628,16.001-0.628,23.983,0c0,2.707,0,5.413,0,8.12  c-7.994,0-15.989,0-23.983,0C5.497,10.158,5.497,7.452,5.497,4.745z"/>
<path fill="none" stroke-width="0.0999" d="M5.497,4.745  c7.982-0.628,16.001-0.628,23.983,0c0,2.707,0,5.413,0,8.12c-7.994,0-15.989,0-23.983,0C5.497,10.158,5.497,7.452,5.497,4.745z" stroke-miterlimit="10" opacity="0.43" stroke="#4D4D4D"/>
<polygon enable-background="new    " points="  6.496,5.746 9.869,5.606 9.869,6.661 6.496,6.799 " fill="#565656" opacity="0.43" stroke="#4D4D4D" stroke-width="0.0135" stroke-miterlimit="10"/>
<rect x="31.307" y="2.517" fill="#E7ED00" width="3.692" height="1.505" stroke="#717171" stroke-width="0.1926" stroke-miterlimit="10"/>
<rect x="31.307" y="5.8" fill="#C8FF00" width="3.692" height="1.507" stroke="#717171" stroke-width="0.1926" stroke-miterlimit="10"/>
<linearGradient y2="35.1235" id="svg3.SVGID_3_" x1="29.4414" gradientUnits="userSpaceOnUse" x2="5.4995" y1="35.1235">
	<stop offset="0" style="stop-color:#808080"/>
	<stop offset="0.1907" style="stop-color:#828282"/>
	<stop offset="0.2955" style="stop-color:#8A8A8A"/>
	<stop offset="0.3795" style="stop-color:#989898"/>
	<stop offset="0.4524" style="stop-color:#ACACAC"/>
	<stop offset="0.5175" style="stop-color:#C5C5C5"/>
	<stop offset="0.5273" style="stop-color:#C9C9C9"/>
	<stop offset="0.5914" style="stop-color:#C9C9C9"/>
	<stop offset="0.9681" style="stop-color:#C9C9C9"/>
</linearGradient>
<path fill="url(#svg3.SVGID_3_)" d="M5.5,14.822c0,13.22,0,26.438,0,39.66c7.931,1.256,16.012,1.256,23.941,0c0-13.222,0-26.439,0-39.66  C21.461,14.822,13.48,14.822,5.5,14.822z M28.396,18.703c-0.74,0.01-1.482,0.02-2.225,0.029c0-0.951,0-1.901-0.001-2.85  c0.742-0.003,1.483-0.005,2.224-0.008C28.396,16.817,28.396,17.76,28.396,18.703z M16.354,42.496c0-0.961,0-1.924,0-2.885  c0.744,0.006,1.489,0.006,2.233,0c0,0.961,0,1.924,0,2.885C17.843,42.503,17.098,42.503,16.354,42.496z M18.587,43.568  c0,0.955,0,1.91,0,2.866c-0.744,0.009-1.489,0.009-2.234,0c0-0.956,0-1.911,0-2.866C17.098,43.574,17.843,43.574,18.587,43.568z   M18.586,27.742c0,0.961,0,1.922,0,2.886c-0.744,0.004-1.488,0.004-2.231,0c0-0.964,0-1.925,0-2.886  C17.099,27.746,17.842,27.746,18.586,27.742z M16.354,26.671c0-0.955,0-1.91,0-2.865c0.743,0.002,1.487,0.002,2.23,0  c0,0.955,0,1.91,0,2.865C17.842,26.675,17.099,26.675,16.354,26.671z M16.354,34.583c0-0.961,0-1.924,0-2.885  c0.744,0.004,1.488,0.004,2.231,0c0,0.961,0,1.924,0,2.885C17.842,34.588,17.099,34.588,16.354,34.583z M18.586,35.656  c0,0.961,0,1.924,0.001,2.885c-0.745,0.008-1.489,0.008-2.233,0c0-0.961,0-1.924,0-2.885C17.099,35.66,17.842,35.66,18.586,35.656z   M15.307,30.619c-0.742-0.01-1.484-0.021-2.227-0.039c0-0.957,0-1.916,0-2.875c0.742,0.014,1.485,0.023,2.226,0.029  C15.307,28.695,15.307,29.656,15.307,30.619z M15.307,31.689c0,0.961,0,1.924,0,2.885c-0.742-0.012-1.485-0.025-2.227-0.047  c0-0.959,0.001-1.92,0.001-2.877C13.822,31.667,14.565,31.68,15.307,31.689z M15.307,35.644c0,0.959,0,1.922-0.001,2.883  c-0.742-0.012-1.485-0.031-2.228-0.056c0-0.959,0.001-1.918,0.001-2.877C13.821,35.617,14.564,35.633,15.307,35.644z M15.306,39.597  c0,0.96,0,1.922,0,2.883c-0.742-0.016-1.486-0.037-2.228-0.064c0-0.959,0-1.916,0.001-2.877  C13.82,39.564,14.563,39.585,15.306,39.597z M19.637,39.597c0.742-0.012,1.484-0.033,2.227-0.059c0,0.959,0,1.918,0,2.875  c-0.741,0.029-1.483,0.052-2.227,0.064C19.637,41.519,19.637,40.559,19.637,39.597z M19.637,38.527c0-0.961,0-1.924,0-2.883  c0.74-0.012,1.482-0.027,2.225-0.05c0,0.959,0,1.918,0.002,2.876C21.121,38.496,20.377,38.515,19.637,38.527z M19.637,34.572  c0-0.961,0-1.922-0.002-2.883c0.741-0.01,1.483-0.021,2.225-0.039c0.002,0.957,0.002,1.916,0.002,2.875  C21.119,34.547,20.376,34.564,19.637,34.572z M19.635,30.619c0-0.963,0-1.924,0-2.885c0.74-0.006,1.483-0.017,2.225-0.029  c0,0.959,0,1.916,0,2.875C21.118,30.599,20.376,30.609,19.635,30.619z M19.633,26.666c0-0.955,0-1.909,0-2.864  c0.741-0.005,1.483-0.013,2.227-0.021c0,0.951,0,1.903,0,2.856C21.118,26.65,20.375,26.66,19.633,26.666z M19.633,22.732  c-0.001-0.963-0.001-1.924-0.001-2.885c0.741-0.002,1.483-0.006,2.226-0.012c0,0.959,0.002,1.918,0.002,2.877  C21.116,22.72,20.374,22.728,19.633,22.732z M18.586,22.736c-0.744,0.002-1.487,0.002-2.23,0c0-0.963,0-1.924,0-2.887  c0.743,0.002,1.487,0.002,2.23,0C18.586,20.813,18.586,21.773,18.586,22.736z M15.309,22.732c-0.742-0.004-1.483-0.012-2.226-0.02  c0-0.959,0.001-1.918,0.001-2.877c0.742,0.006,1.484,0.01,2.226,0.012C15.31,20.808,15.309,21.769,15.309,22.732z M15.309,23.801  c0,0.955,0,1.91,0,2.864c-0.742-0.006-1.483-0.016-2.227-0.027c0-0.953,0-1.906,0-2.859C13.825,23.789,14.566,23.796,15.309,23.801z   M12.036,26.617c-0.742-0.017-1.483-0.033-2.225-0.055c0-0.947,0-1.895,0.001-2.841c0.741,0.019,1.483,0.031,2.225,0.042  C12.037,24.716,12.036,25.666,12.036,26.617z M12.035,27.683c0,0.957,0,1.916,0,2.873c-0.742-0.021-1.483-0.047-2.225-0.076  c0-0.953,0-1.904,0-2.857C10.552,27.646,11.293,27.667,12.035,27.683z M12.035,31.621c0,0.957-0.001,1.914-0.001,2.871  c-0.742-0.023-1.483-0.055-2.224-0.092c0-0.953,0-1.906,0-2.859C10.551,31.572,11.292,31.6,12.035,31.621z M12.033,35.56  c0,0.956-0.001,1.914-0.001,2.871c-0.742-0.031-1.484-0.066-2.225-0.111c0-0.953,0.001-1.906,0.001-2.858  C10.549,35.5,11.291,35.533,12.033,35.56z M12.031,39.498c0,0.955,0,1.914-0.001,2.869c-0.742-0.035-1.484-0.078-2.225-0.129  c0-0.953,0-1.904,0.001-2.857C10.547,39.426,11.289,39.465,12.031,39.498z M12.03,43.435c0,0.951-0.001,1.901-0.001,2.854  c-0.742-0.041-1.484-0.09-2.225-0.149c0-0.944,0.001-1.892,0.001-2.838C10.546,43.353,11.288,43.4,12.03,43.435z M13.077,43.482  c0.743,0.031,1.486,0.053,2.228,0.067c0,0.956,0,1.91,0,2.864c-0.742-0.016-1.486-0.041-2.229-0.074  C13.077,45.389,13.077,44.435,13.077,43.482z M15.305,47.486c0,0.961,0,1.922,0,2.883c-0.743-0.019-1.487-0.047-2.23-0.084  c0-0.959,0-1.918,0.001-2.875C13.818,47.443,14.562,47.468,15.305,47.486z M16.353,47.504c0.745,0.009,1.49,0.009,2.234,0  c0.001,0.96,0.001,1.924,0.001,2.883c-0.745,0.011-1.49,0.011-2.235,0C16.353,49.427,16.353,48.464,16.353,47.504z M19.639,47.486  c0.741-0.018,1.483-0.043,2.227-0.076c0,0.957,0.002,1.916,0.002,2.875c-0.742,0.037-1.486,0.065-2.229,0.084  C19.639,49.406,19.639,48.447,19.639,47.486z M19.637,46.414c0-0.954,0-1.908,0-2.864c0.742-0.015,1.484-0.036,2.229-0.067  c0,0.953,0,1.905,0,2.857C21.122,46.373,20.379,46.398,19.637,46.414z M22.911,43.435c0.741-0.035,1.483-0.082,2.224-0.135  c0,0.945,0,1.895,0.002,2.838c-0.74,0.059-1.482,0.107-2.226,0.15C22.911,45.336,22.911,44.386,22.911,43.435z M22.911,42.369  c-0.001-0.957-0.001-1.914-0.002-2.871c0.741-0.032,1.483-0.069,2.225-0.117c0,0.954,0.001,1.906,0.001,2.857  C24.395,42.289,23.652,42.333,22.911,42.369z M22.909,38.431c0-0.957-0.001-1.915-0.001-2.871c0.742-0.027,1.482-0.061,2.224-0.098  c0.001,0.951,0.001,1.904,0.001,2.857C24.393,38.363,23.65,38.4,22.909,38.431z M22.908,34.494c0-0.957-0.002-1.916-0.002-2.871  c0.742-0.021,1.482-0.051,2.225-0.079c0,0.952,0,1.903,0.001,2.856C24.391,34.437,23.648,34.468,22.908,34.494z M22.906,30.556  c0-0.957,0-1.916-0.002-2.873c0.742-0.016,1.484-0.037,2.226-0.061c0,0.953,0.001,1.904,0.001,2.857  C24.391,30.509,23.648,30.535,22.906,30.556z M22.904,26.617c0-0.951,0-1.901,0-2.854c0.74-0.011,1.482-0.025,2.224-0.042  c0,0.946,0.001,1.894,0.001,2.841C24.389,26.583,23.646,26.601,22.904,26.617z M22.902,22.699c0-0.957,0-1.916,0-2.874  c0.742-0.007,1.482-0.014,2.225-0.023c0.001,0.953,0.001,1.906,0.001,2.859C24.387,22.676,23.646,22.689,22.902,22.699z   M22.902,18.76C22.9,17.802,22.9,16.845,22.9,15.887c0.742,0,1.481-0.003,2.225-0.004c0.001,0.953,0.001,1.906,0.002,2.858  C24.385,18.75,23.643,18.756,22.902,18.76z M21.855,18.767c-0.742,0.004-1.482,0.007-2.225,0.009c0-0.961,0-1.922,0-2.884  c0.741,0,1.482-0.001,2.225-0.002C21.855,16.849,21.855,17.808,21.855,18.767z M18.585,18.779c-0.743,0.001-1.486,0.001-2.229,0  c0-0.961,0-1.923,0-2.885c0.742,0,1.486,0,2.229,0C18.585,16.855,18.585,17.817,18.585,18.779z M15.31,18.777  c-0.742-0.002-1.483-0.005-2.225-0.009c0-0.959,0-1.918,0-2.877c0.742,0,1.483,0.001,2.225,0.002  C15.31,16.854,15.31,17.815,15.31,18.777z M12.039,18.76c-0.742-0.005-1.483-0.011-2.225-0.019c0-0.953,0-1.905,0.001-2.858  c0.742,0.001,1.483,0.004,2.224,0.004C12.039,16.845,12.039,17.803,12.039,18.76z M12.039,19.827c0,0.957-0.001,1.915-0.001,2.872  c-0.741-0.01-1.483-0.021-2.224-0.035c0-0.953,0-1.906,0-2.859C10.555,19.813,11.296,19.819,12.039,19.827z M8.768,22.64  c-0.741-0.018-1.482-0.035-2.223-0.057c0-0.943,0-1.887,0-2.831c0.741,0.013,1.482,0.025,2.223,0.036  C8.768,20.739,8.768,21.689,8.768,22.64z M8.767,23.697c0,0.944,0,1.89,0,2.832c-0.741-0.024-1.482-0.053-2.223-0.084  c0-0.938,0-1.873,0-2.811C7.284,23.658,8.026,23.679,8.767,23.697z M8.766,27.587c0,0.949-0.001,1.898-0.001,2.85  c-0.74-0.033-1.481-0.068-2.222-0.111c0-0.942,0-1.887,0-2.83C7.284,27.529,8.025,27.56,8.766,27.587z M8.765,31.494  c0,0.951-0.001,1.9-0.001,2.852c-0.74-0.04-1.481-0.087-2.221-0.139c0-0.943,0-1.887,0-2.831C7.283,31.42,8.023,31.459,8.765,31.494  z M8.763,35.404c0,0.949,0,1.899,0,2.851c-0.741-0.052-1.481-0.104-2.22-0.168c0-0.942,0-1.886,0-2.829  C7.282,35.31,8.022,35.361,8.763,35.404z M8.762,39.312c0,0.949,0,1.899-0.001,2.852c-0.741-0.059-1.48-0.123-2.219-0.195  c0-0.943,0-1.889,0-2.83C7.281,39.203,8.021,39.26,8.762,39.312z M8.76,43.219c0,0.944,0,1.888-0.001,2.832  c-0.74-0.065-1.479-0.14-2.218-0.224c0-0.938,0-1.875,0-2.812C7.281,43.092,8.02,43.16,8.76,43.219z M8.759,47.109  c0,0.951,0,1.9,0,2.851c-0.741-0.073-1.48-0.158-2.219-0.253c0-0.942,0-1.887,0-2.828C7.279,46.964,8.019,47.039,8.759,47.109z   M9.804,47.201c0.741,0.06,1.483,0.111,2.224,0.154c0,0.955,0,1.912,0,2.868c-0.742-0.045-1.484-0.103-2.225-0.166  C9.804,49.107,9.804,48.154,9.804,47.201z M12.027,51.291c0,0.957,0,1.916,0,2.873c-0.742-0.053-1.484-0.114-2.225-0.188  c0-0.951,0.001-1.904,0.001-2.857C10.544,51.187,11.285,51.244,12.027,51.291z M13.075,51.353c0.743,0.039,1.486,0.067,2.229,0.086  c0,0.961,0,1.922,0,2.885c-0.743-0.021-1.487-0.053-2.229-0.094C13.075,53.269,13.075,52.312,13.075,51.353z M16.353,51.459  c0.745,0.009,1.49,0.009,2.235,0c0,0.961,0,1.924,0,2.885c-0.745,0.013-1.491,0.013-2.235,0  C16.353,53.382,16.353,52.42,16.353,51.459z M19.639,51.439c0.741-0.019,1.485-0.049,2.229-0.086c0,0.959,0,1.92,0.001,2.877  c-0.743,0.041-1.485,0.072-2.229,0.094C19.639,53.361,19.639,52.4,19.639,51.439z M22.913,51.291  c0.743-0.047,1.483-0.104,2.226-0.172c0,0.953,0,1.906,0,2.857c-0.74,0.073-1.481,0.135-2.224,0.188  C22.914,53.205,22.914,52.248,22.913,51.291z M22.913,50.224c-0.001-0.956-0.001-1.912-0.001-2.869  c0.742-0.043,1.484-0.095,2.225-0.154c0,0.953,0,1.906,0.002,2.857C24.396,50.123,23.654,50.179,22.913,50.224z M26.184,47.109  c0.739-0.066,1.479-0.145,2.217-0.229c0,0.942,0,1.887,0,2.83c-0.736,0.092-1.478,0.177-2.217,0.252  C26.184,49.009,26.184,48.06,26.184,47.109z M26.184,46.051c-0.002-0.944-0.002-1.888-0.002-2.832  c0.739-0.06,1.48-0.127,2.219-0.202c0,0.938,0,1.873,0,2.811C27.662,45.912,26.923,45.986,26.184,46.051z M26.182,42.162  c0-0.95-0.002-1.9-0.002-2.85c0.74-0.052,1.48-0.109,2.219-0.176c0.002,0.943,0.002,1.887,0.002,2.83  C27.662,42.039,26.921,42.105,26.182,42.162z M26.18,38.253c0-0.95,0-1.9-0.002-2.852c0.742-0.041,1.482-0.093,2.221-0.146  c0,0.942,0,1.887,0,2.829C27.66,38.15,26.92,38.203,26.18,38.253z M26.178,34.345c0-0.949,0-1.898,0-2.852  c0.74-0.034,1.481-0.073,2.221-0.117c0,0.943,0,1.887,0,2.83C27.659,34.258,26.918,34.305,26.178,34.345z M26.177,30.437  c0-0.949,0-1.9-0.001-2.85c0.741-0.027,1.481-0.059,2.221-0.092c0,0.943,0.002,1.888,0.002,2.83  C27.659,30.367,26.918,30.404,26.177,30.437z M26.176,26.529c-0.001-0.942-0.001-1.888-0.001-2.832  c0.742-0.018,1.482-0.039,2.222-0.063c0,0.938,0,1.873,0,2.811C27.657,26.476,26.917,26.503,26.176,26.529z M26.174,22.64  c0-0.951-0.001-1.901-0.001-2.851c0.741-0.01,1.483-0.022,2.224-0.035c0,0.943,0,1.886,0,2.831  C27.657,22.605,26.915,22.623,26.174,22.64z M8.769,15.881c0,0.95,0,1.9-0.001,2.85c-0.741-0.008-1.482-0.018-2.223-0.028  c0-0.943,0-1.887,0-2.83C7.286,15.876,8.028,15.878,8.769,15.881z M6.54,50.758c0.738,0.097,1.478,0.183,2.218,0.258  c0,0.95,0,1.901,0,2.853c-0.741-0.084-1.48-0.178-2.218-0.28C6.54,52.646,6.54,51.701,6.54,50.758z M26.184,53.869  c0-0.95,0-1.899,0-2.853c0.739-0.075,1.479-0.163,2.217-0.259c0.002,0.941,0.002,1.889,0.002,2.83  C27.663,53.693,26.925,53.785,26.184,53.869z"/>
<path fill="#FFFFFF" id="svg3.highlight_2_" d="M0,0.943h5.497c0,0,6.847-0.943,11.974-0.943  C22.6,0,29.48,0.943,29.48,0.943h5.496v41.951c0,0-12.076-0.521-18.623-2.548C9.807,38.32,0,30.557,0,30.557V0.943z" enable-background="new    " opacity="0.17"/>
</svg>
      </g>
    </g>
    <g fill="rgb(204,255,204)" text-rendering="geometricPrecision" shape-rendering="geometricPrecision" transform="matrix(1,0,0,1,508,243)" stroke="rgb(204,255,204)">
      <rect x="4.7205" width="186" height="65" y="206.2945" clip-path="url(#clipPath2)" stroke="none"/>
    </g>
    <g stroke-linecap="butt" transform="matrix(1,0,0,1,508,243)" fill="rgb(153,204,0)" text-rendering="geometricPrecision" shape-rendering="geometricPrecision" stroke="rgb(153,204,0)" stroke-miterlimit="1.45">
      <rect fill="none" x="4.7205" width="186" height="65" y="206.2945" clip-path="url(#clipPath2)"/>
      <text x="59.3709" y="243.5084" clip-path="url(#clipPath2)" fill="black" font-family="sans-serif" stroke="none" xml:space="preserve">Output .tsv file</text>
    </g>
    <g fill="rgb(204,255,204)" text-rendering="geometricPrecision" shape-rendering="geometricPrecision" transform="matrix(1,0,0,1,508,243)" stroke="rgb(204,255,204)">
      <rect x="-298.5" width="186" height="65" y="206.2945" clip-path="url(#clipPath2)" stroke="none"/>
    </g>
    <g stroke-linecap="butt" transform="matrix(1,0,0,1,508,243)" fill="rgb(153,204,0)" text-rendering="geometricPrecision" shape-rendering="geometricPrecision" stroke="rgb(153,204,0)" stroke-miterlimit="1.45">
      <rect fill="none" x="-298.5" width="186" height="65" y="206.2945" clip-path="url(#clipPath2)"/>
      <text x="-243.8496" y="243.5084" clip-path="url(#clipPath2)" fill="black" font-family="sans-serif" stroke="none" xml:space="preserve">Output .tsv file</text>
    </g>
    <g fill="rgb(255,204,0)" text-rendering="geometricPrecision" shape-rendering="geometricPrecision" transform="matrix(1,0,0,1,508,243)" stroke="rgb(255,204,0)">
      <rect x="-243.625" width="76.25" height="25" y="-85.6256" clip-path="url(#clipPath2)" stroke="none"/>
    </g>
    <g text-rendering="geometricPrecision" stroke-miterlimit="1.45" shape-rendering="geometricPrecision" transform="matrix(1,0,0,1,508,243)" stroke-linecap="butt">
      <rect fill="none" x="-243.625" width="76.25" height="25" y="-85.6256" clip-path="url(#clipPath2)"/>
      <text x="-236.1768" xml:space="preserve" y="-68.4117" clip-path="url(#clipPath2)" font-family="sans-serif" stroke="none">Microscope</text>
    </g>
    <g fill="rgb(255,204,0)" text-rendering="geometricPrecision" shape-rendering="geometricPrecision" transform="matrix(1,0,0,1,508,243)" stroke="rgb(255,204,0)">
      <rect x="-243.625" width="76.25" height="25" y="92.866" clip-path="url(#clipPath2)" stroke="none"/>
    </g>
    <g text-rendering="geometricPrecision" stroke-miterlimit="1.45" shape-rendering="geometricPrecision" transform="matrix(1,0,0,1,508,243)" stroke-linecap="butt">
      <rect fill="none" x="-243.625" width="76.25" height="25" y="92.866" clip-path="url(#clipPath2)"/>
      <text x="-236.1826" xml:space="preserve" y="110.0799" clip-path="url(#clipPath2)" font-family="sans-serif" stroke="none">ST Pipeline</text>
    </g>
    <g fill="rgb(255,153,0)" text-rendering="geometricPrecision" shape-rendering="geometricPrecision" transform="matrix(1,0,0,1,508,243)" stroke="rgb(255,153,0)">
      <rect x="337.941" width="186" height="65" y="-22.5685" clip-path="url(#clipPath2)" stroke="none"/>
    </g>
    <g text-rendering="geometricPrecision" stroke-miterlimit="1.45" shape-rendering="geometricPrecision" transform="matrix(1,0,0,1,508,243)" stroke-linecap="butt">
      <rect fill="none" x="337.941" width="186" height="65" y="-22.5685" clip-path="url(#clipPath2)"/>
      <text x="394.5953" xml:space="preserve" y="14.6454" clip-path="url(#clipPath2)" font-family="sans-serif" stroke="none">Run tile script</text>
    </g>
    <g fill="white" text-rendering="geometricPrecision" shape-rendering="geometricPrecision" transform="matrix(1,0,0,1,508,243)" stroke="white">
      <rect x="337.941" width="186" height="65" y="377.589" clip-path="url(#clipPath2)" stroke="none"/>
    </g>
    <g stroke-linecap="butt" transform="matrix(1,0,0,1,508,243)" fill="rgb(153,153,153)" text-rendering="geometricPrecision" shape-rendering="geometricPrecision" stroke="rgb(153,153,153)" stroke-miterlimit="1.45">
      <rect fill="none" x="337.941" width="186" height="65" y="377.589" clip-path="url(#clipPath2)"/>
      <text x="341.8932" y="414.8029" clip-path="url(#clipPath2)" fill="black" font-family="sans-serif" stroke="none" xml:space="preserve">Put output folder in local directory</text>
      <path fill="none" d="M97.7205 42.4251 L97.7205 198.2945" clip-path="url(#clipPath2)" stroke="black"/>
      <path fill="black" d="M97.7205 206.2945 L102.7205 194.2945 L97.7205 197.2945 L92.7205 194.2945 Z" clip-path="url(#clipPath2)" stroke="none"/>
      <path fill="none" d="M-432.2423 -8.8404 L-251.2433 -70.5291" clip-path="url(#clipPath2)" stroke="black"/>
      <path fill="black" d="M-243.6711 -73.1099 L-256.6425 -73.9713 L-252.1899 -70.2065 L-253.4165 -64.506 Z" clip-path="url(#clipPath2)" stroke="none"/>
      <path fill="none" d="M-432.2016 -8.3663 L-250.4986 101.2205" clip-path="url(#clipPath2)" stroke="black"/>
      <path fill="black" d="M-243.648 105.3521 L-251.3416 94.8731 L-251.3549 100.704 L-256.5061 103.4363 Z" clip-path="url(#clipPath2)" stroke="none"/>
      <path fill="none" d="M-205.5 117.866 L-205.5 198.2945" clip-path="url(#clipPath2)" stroke="black"/>
      <path fill="black" d="M-205.5 206.2945 L-200.5 194.2945 L-205.5 197.2945 L-210.5 194.2945 Z" clip-path="url(#clipPath2)" stroke="none"/>
    </g>
    <g fill="rgb(245,245,245)" text-rendering="geometricPrecision" shape-rendering="geometricPrecision" transform="matrix(1,0,0,1,508,243)" stroke="rgb(245,245,245)">
      <rect x="523.941" y="377.589" clip-path="url(#clipPath2)" width="454.9814" rx="4" ry="4" height="454.4512" stroke="none"/>
      <rect x="523.941" y="377.589" clip-path="url(#clipPath2)" fill="rgb(235,235,235)" width="454.9814" height="22.3765" stroke="none"/>
    </g>
    <g font-size="15px" stroke-linecap="butt" transform="matrix(1,0,0,1,508,243)" text-rendering="geometricPrecision" font-family="sans-serif" shape-rendering="geometricPrecision" stroke-miterlimit="1.45">
      <text x="890.233" xml:space="preserve" y="394.6696" clip-path="url(#clipPath2)" stroke="none">File structure</text>
      <rect x="523.941" y="377.589" clip-path="url(#clipPath2)" fill="none" width="454.9814" stroke-dasharray="6,2" rx="4" ry="4" height="454.4512"/>
    </g>
    <g fill="rgb(255,204,0)" text-rendering="geometricPrecision" shape-rendering="geometricPrecision" transform="matrix(1,0,0,1,508,243)" stroke="rgb(255,204,0)">
      <rect x="559.3414" width="78" height="37.6235" y="407.9655" clip-path="url(#clipPath2)" stroke="none"/>
    </g>
    <g text-rendering="geometricPrecision" stroke-miterlimit="1.45" shape-rendering="geometricPrecision" transform="matrix(1,0,0,1,508,243)" stroke-linecap="butt">
      <rect fill="none" x="559.3414" width="78" height="37.6235" y="407.9655" clip-path="url(#clipPath2)"/>
      <text x="569.3316" xml:space="preserve" y="431.4911" clip-path="url(#clipPath2)" font-family="sans-serif" stroke="none">Local HDD</text>
    </g>
    <g fill="rgb(255,204,0)" text-rendering="geometricPrecision" shape-rendering="geometricPrecision" transform="matrix(1,0,0,1,508,243)" stroke="rgb(255,204,0)">
      <rect x="570.8414" width="55" height="36" y="496.7772" clip-path="url(#clipPath2)" stroke="none"/>
    </g>
    <g text-rendering="geometricPrecision" stroke-miterlimit="1.45" shape-rendering="geometricPrecision" transform="matrix(1,0,0,1,508,243)" stroke-linecap="butt">
      <rect fill="none" x="570.8414" width="55" height="36" y="496.7772" clip-path="url(#clipPath2)"/>
      <text x="572.6568" xml:space="preserve" y="519.4911" clip-path="url(#clipPath2)" font-family="sans-serif" stroke="none">ShinyApp</text>
    </g>
    <g fill="rgb(255,204,0)" text-rendering="geometricPrecision" shape-rendering="geometricPrecision" transform="matrix(1,0,0,1,508,243)" stroke="rgb(255,204,0)">
      <rect x="577.3414" width="42" height="30" y="565.7772" clip-path="url(#clipPath2)" stroke="none"/>
    </g>
    <g text-rendering="geometricPrecision" stroke-miterlimit="1.45" shape-rendering="geometricPrecision" transform="matrix(1,0,0,1,508,243)" stroke-linecap="butt">
      <rect fill="none" x="577.3414" width="42" height="30" y="565.7772" clip-path="url(#clipPath2)"/>
      <text x="585.3423" xml:space="preserve" y="585.4911" clip-path="url(#clipPath2)" font-family="sans-serif" stroke="none">www</text>
    </g>
    <g fill="rgb(255,204,0)" text-rendering="geometricPrecision" shape-rendering="geometricPrecision" transform="matrix(1,0,0,1,508,243)" stroke="rgb(255,204,0)">
      <rect x="540.7164" width="97.65" height="49.2" y="717.7975" clip-path="url(#clipPath2)" stroke="none"/>
    </g>
    <g text-rendering="geometricPrecision" stroke-miterlimit="1.45" shape-rendering="geometricPrecision" transform="matrix(1,0,0,1,508,243)" stroke-linecap="butt">
      <rect fill="none" x="540.7164" width="97.65" height="49.2" y="717.7975" clip-path="url(#clipPath2)"/>
      <text x="550.8519" xml:space="preserve" y="739.7607" clip-path="url(#clipPath2)" font-family="sans-serif" stroke="none">Put Tile output</text>
      <text x="544.1781" xml:space="preserve" y="754.4619" clip-path="url(#clipPath2)" font-family="sans-serif" stroke="none">for dataset1 here</text>
    </g>
    <g fill="rgb(255,204,0)" text-rendering="geometricPrecision" shape-rendering="geometricPrecision" transform="matrix(1,0,0,1,508,243)" stroke="rgb(255,204,0)">
      <rect x="577.3414" width="42" height="30" y="628.7772" clip-path="url(#clipPath2)" stroke="none"/>
    </g>
    <g text-rendering="geometricPrecision" stroke-miterlimit="1.45" shape-rendering="geometricPrecision" transform="matrix(1,0,0,1,508,243)" stroke-linecap="butt">
      <rect fill="none" x="577.3414" width="42" height="30" y="628.7772" clip-path="url(#clipPath2)"/>
      <text x="595.0045" xml:space="preserve" y="648.4911" clip-path="url(#clipPath2)" font-family="sans-serif" stroke="none">1</text>
    </g>
    <g fill="rgb(255,204,0)" text-rendering="geometricPrecision" shape-rendering="geometricPrecision" transform="matrix(1,0,0,1,508,243)" stroke="rgb(255,204,0)">
      <rect x="644.0914" width="42" height="30" y="628.7772" clip-path="url(#clipPath2)" stroke="none"/>
    </g>
    <g text-rendering="geometricPrecision" stroke-miterlimit="1.45" shape-rendering="geometricPrecision" transform="matrix(1,0,0,1,508,243)" stroke-linecap="butt">
      <rect fill="none" x="644.0914" width="42" height="30" y="628.7772" clip-path="url(#clipPath2)"/>
      <text x="661.7545" xml:space="preserve" y="648.4911" clip-path="url(#clipPath2)" font-family="sans-serif" stroke="none">2</text>
    </g>
    <g fill="rgb(255,204,0)" text-rendering="geometricPrecision" shape-rendering="geometricPrecision" transform="matrix(1,0,0,1,508,243)" stroke="rgb(255,204,0)">
      <rect x="710.8414" width="42" height="30" y="628.7772" clip-path="url(#clipPath2)" stroke="none"/>
    </g>
    <g text-rendering="geometricPrecision" stroke-miterlimit="1.45" shape-rendering="geometricPrecision" transform="matrix(1,0,0,1,508,243)" stroke-linecap="butt">
      <rect fill="none" x="710.8414" width="42" height="30" y="628.7772" clip-path="url(#clipPath2)"/>
      <text x="728.5045" xml:space="preserve" y="648.4911" clip-path="url(#clipPath2)" font-family="sans-serif" stroke="none">3</text>
    </g>
    <g fill="rgb(255,204,0)" text-rendering="geometricPrecision" shape-rendering="geometricPrecision" transform="matrix(1,0,0,1,508,243)" stroke="rgb(255,204,0)">
      <rect x="778.8414" width="42" height="30" y="628.7772" clip-path="url(#clipPath2)" stroke="none"/>
    </g>
    <g text-rendering="geometricPrecision" stroke-miterlimit="1.45" shape-rendering="geometricPrecision" transform="matrix(1,0,0,1,508,243)" stroke-linecap="butt">
      <rect fill="none" x="778.8414" width="42" height="30" y="628.7772" clip-path="url(#clipPath2)"/>
      <text x="796.5045" xml:space="preserve" y="648.4911" clip-path="url(#clipPath2)" font-family="sans-serif" stroke="none">4</text>
    </g>
    <g fill="rgb(255,204,0)" text-rendering="geometricPrecision" shape-rendering="geometricPrecision" transform="matrix(1,0,0,1,508,243)" stroke="rgb(255,204,0)">
      <rect x="652.8324" width="97.65" height="49.2" y="717.7975" clip-path="url(#clipPath2)" stroke="none"/>
    </g>
    <g text-rendering="geometricPrecision" stroke-miterlimit="1.45" shape-rendering="geometricPrecision" transform="matrix(1,0,0,1,508,243)" stroke-linecap="butt">
      <rect fill="none" x="652.8324" width="97.65" height="49.2" y="717.7975" clip-path="url(#clipPath2)"/>
      <text x="662.968" xml:space="preserve" y="739.7607" clip-path="url(#clipPath2)" font-family="sans-serif" stroke="none">Put Tile output</text>
      <text x="656.2941" xml:space="preserve" y="754.4619" clip-path="url(#clipPath2)" font-family="sans-serif" stroke="none">for dataset2 here</text>
    </g>
    <g fill="rgb(255,204,0)" text-rendering="geometricPrecision" shape-rendering="geometricPrecision" transform="matrix(1,0,0,1,508,243)" stroke="rgb(255,204,0)">
      <rect x="764.9484" width="97.65" height="49.2" y="717.7975" clip-path="url(#clipPath2)" stroke="none"/>
    </g>
    <g text-rendering="geometricPrecision" stroke-miterlimit="1.45" shape-rendering="geometricPrecision" transform="matrix(1,0,0,1,508,243)" stroke-linecap="butt">
      <rect fill="none" x="764.9484" width="97.65" height="49.2" y="717.7975" clip-path="url(#clipPath2)"/>
      <text x="775.0839" xml:space="preserve" y="739.7607" clip-path="url(#clipPath2)" font-family="sans-serif" stroke="none">Put Tile output</text>
      <text x="768.4101" xml:space="preserve" y="754.4619" clip-path="url(#clipPath2)" font-family="sans-serif" stroke="none">for dataset3 here</text>
    </g>
    <g fill="rgb(255,204,0)" text-rendering="geometricPrecision" shape-rendering="geometricPrecision" transform="matrix(1,0,0,1,508,243)" stroke="rgb(255,204,0)">
      <rect x="872.8964" width="97.65" height="49.2" y="717.7975" clip-path="url(#clipPath2)" stroke="none"/>
    </g>
    <g text-rendering="geometricPrecision" stroke-miterlimit="1.45" shape-rendering="geometricPrecision" transform="matrix(1,0,0,1,508,243)" stroke-linecap="butt">
      <rect fill="none" x="872.8964" width="97.65" height="49.2" y="717.7975" clip-path="url(#clipPath2)"/>
      <text x="883.0319" xml:space="preserve" y="739.7607" clip-path="url(#clipPath2)" font-family="sans-serif" stroke="none">Put Tile output</text>
      <text x="876.3581" xml:space="preserve" y="754.4619" clip-path="url(#clipPath2)" font-family="sans-serif" stroke="none">for dataset4 here</text>
    </g>
    <g fill="rgb(255,204,0)" text-rendering="geometricPrecision" shape-rendering="geometricPrecision" transform="matrix(1,0,0,1,508,243)" stroke="rgb(255,204,0)">
      <rect x="398.741" width="64.4" height="30" y="-190.2902" clip-path="url(#clipPath2)" stroke="none"/>
    </g>
    <g text-rendering="geometricPrecision" stroke-miterlimit="1.45" shape-rendering="geometricPrecision" transform="matrix(1,0,0,1,508,243)" stroke-linecap="butt">
      <rect fill="none" x="398.741" width="64.4" height="30" y="-190.2902" clip-path="url(#clipPath2)"/>
      <text x="411.2711" xml:space="preserve" y="-170.5763" clip-path="url(#clipPath2)" font-family="sans-serif" stroke="none">HE img</text>
    </g>
    <g fill="rgb(255,204,0)" text-rendering="geometricPrecision" shape-rendering="geometricPrecision" transform="matrix(1,0,0,1,508,243)" stroke="rgb(255,204,0)">
      <rect x="65.5205" width="64.4" height="30" y="-190.2902" clip-path="url(#clipPath2)" stroke="none"/>
    </g>
    <g text-rendering="geometricPrecision" stroke-miterlimit="1.45" shape-rendering="geometricPrecision" transform="matrix(1,0,0,1,508,243)" stroke-linecap="butt">
      <rect fill="none" x="65.5205" width="64.4" height="30" y="-190.2902" clip-path="url(#clipPath2)"/>
      <text x="75.7156" xml:space="preserve" y="-170.5763" clip-path="url(#clipPath2)" font-family="sans-serif" stroke="none">Cy3 img</text>
    </g>
    <g fill="rgb(255,153,0)" text-rendering="geometricPrecision" shape-rendering="geometricPrecision" transform="matrix(1,0,0,1,508,243)" stroke="rgb(255,153,0)">
      <rect x="-158.3125" width="186" height="65" y="506.964" clip-path="url(#clipPath2)" stroke="none"/>
    </g>
    <g text-rendering="geometricPrecision" stroke-miterlimit="1.45" shape-rendering="geometricPrecision" transform="matrix(1,0,0,1,508,243)" stroke-linecap="butt">
      <rect fill="none" x="-158.3125" width="186" height="65" y="506.964" clip-path="url(#clipPath2)"/>
      <text x="-97.3311" xml:space="preserve" y="544.1779" clip-path="url(#clipPath2)" font-family="sans-serif" stroke="none">Spatial EYE</text>
    </g>
    <g fill="rgb(204,255,204)" text-rendering="geometricPrecision" shape-rendering="geometricPrecision" transform="matrix(1,0,0,1,508,243)" stroke="rgb(204,255,204)">
      <rect x="337.941" width="186" height="65" y="206.2945" clip-path="url(#clipPath2)" stroke="none"/>
    </g>
    <g stroke-linecap="butt" transform="matrix(1,0,0,1,508,243)" fill="rgb(153,204,0)" text-rendering="geometricPrecision" shape-rendering="geometricPrecision" stroke="rgb(153,204,0)" stroke-miterlimit="1.45">
      <rect fill="none" x="337.941" width="186" height="65" y="206.2945" clip-path="url(#clipPath2)"/>
      <text x="366.5816" y="243.5084" clip-path="url(#clipPath2)" fill="black" font-family="sans-serif" stroke="none" xml:space="preserve">Output folders with imgs</text>
      <path fill="none" d="M598.3414 445.589 L598.3414 488.7772" clip-path="url(#clipPath2)" stroke="black"/>
      <path fill="black" d="M598.3414 496.7772 L603.3414 484.7772 L598.3414 487.7772 L593.3414 484.7772 Z" clip-path="url(#clipPath2)" stroke="none"/>
      <path fill="none" d="M598.3414 532.7772 L598.3414 557.7772" clip-path="url(#clipPath2)" stroke="black"/>
      <path fill="black" d="M598.3414 565.7772 L603.3414 553.7772 L598.3414 556.7772 L593.3414 553.7772 Z" clip-path="url(#clipPath2)" stroke="none"/>
      <path fill="none" d="M598.3414 595.7772 L598.3414 620.7772" clip-path="url(#clipPath2)" stroke="black"/>
      <path fill="black" d="M598.3414 628.7772 L603.3414 616.7772 L598.3414 619.7772 L593.3414 616.7772 Z" clip-path="url(#clipPath2)" stroke="none"/>
      <path fill="none" d="M597.0029 658.7772 L592.4475 709.8291" clip-path="url(#clipPath2)" stroke="black"/>
      <path fill="black" d="M591.7365 717.7974 L597.7833 706.2893 L592.5364 708.8331 L587.8228 705.4005 Z" clip-path="url(#clipPath2)" stroke="none"/>
      <path fill="none" d="M619.3414 580.7772 L665.0914 580.7772 L665.0914 620.7772" clip-path="url(#clipPath2)" stroke="black"/>
      <path fill="black" d="M665.0914 628.7772 L670.0914 616.7772 L665.0914 619.7772 L660.0914 616.7772 Z" clip-path="url(#clipPath2)" stroke="none"/>
      <path fill="none" d="M619.3414 580.7772 L731.8414 580.7772 L731.8414 620.7772" clip-path="url(#clipPath2)" stroke="black"/>
      <path fill="black" d="M731.8414 628.7772 L736.8414 616.7772 L731.8414 619.7772 L726.8414 616.7772 Z" clip-path="url(#clipPath2)" stroke="none"/>
      <path fill="none" d="M619.3414 580.7772 L799.8414 580.7772 L799.8414 620.7772" clip-path="url(#clipPath2)" stroke="black"/>
      <path fill="black" d="M799.8414 628.7772 L804.8414 616.7772 L799.8414 619.7772 L794.8414 616.7772 Z" clip-path="url(#clipPath2)" stroke="none"/>
      <path fill="none" d="M670.653 658.7772 L689.7551 710.2964" clip-path="url(#clipPath2)" stroke="black"/>
      <path fill="black" d="M692.5363 717.7974 L693.0527 704.8077 L689.4075 709.3588 L683.6765 708.2842 Z" clip-path="url(#clipPath2)" stroke="none"/>
      <path fill="none" d="M744.3032 658.7772 L788.2239 711.644" clip-path="url(#clipPath2)" stroke="black"/>
      <path fill="black" d="M793.3361 717.7975 L789.5138 705.3721 L787.5849 710.8748 L781.8219 711.7623 Z" clip-path="url(#clipPath2)" stroke="none"/>
      <path fill="none" d="M818.3792 658.7772 L885.1004 712.7653" clip-path="url(#clipPath2)" stroke="black"/>
      <path fill="black" d="M891.3195 717.7975 L885.136 706.3622 L884.323 712.1362 L878.8457 714.136 Z" clip-path="url(#clipPath2)" stroke="none"/>
      <path fill="none" d="M-167.375 -73.1256 L-76.75 -73.1256 L-76.75 -227.5 L430.941 -227.5 L430.941 -198.2902" clip-path="url(#clipPath2)" stroke="black"/>
      <path fill="black" d="M430.941 -190.2902 L435.941 -202.2902 L430.941 -199.2902 L425.941 -202.2902 Z" clip-path="url(#clipPath2)" stroke="none"/>
      <path fill="none" d="M430.941 -160.2902 L430.941 -30.5685" clip-path="url(#clipPath2)" stroke="black"/>
      <path fill="black" d="M430.941 -22.5685 L435.941 -34.5685 L430.941 -31.5685 L425.941 -34.5685 Z" clip-path="url(#clipPath2)" stroke="none"/>
      <path fill="none" d="M403.9554 -160.2902 L163.1816 -26.4552" clip-path="url(#clipPath2)" stroke="black"/>
      <path fill="black" d="M156.1892 -22.5685 L169.107 -24.0284 L164.0556 -26.9411 L164.2486 -32.7688 Z" clip-path="url(#clipPath2)" stroke="none"/>
      <path fill="none" d="M-167.375 -73.1256 L-76.8 -73.1256 L-76.8 -135.041 L-76.8 -226.5402 L97.7205 -226.5402 L97.7205 -191.5402 L97.7205 -190.2902" clip-path="url(#clipPath2)" stroke="black"/>
      <path fill="black" d="M97.7205 -190.2902 L102.7205 -202.2902 L97.7205 -199.2902 L92.7205 -202.2902 Z" clip-path="url(#clipPath2)" stroke="none"/>
      <path fill="none" d="M97.7205 -160.2902 L97.7205 -30.5685" clip-path="url(#clipPath2)" stroke="black"/>
      <path fill="black" d="M97.7205 -22.5685 L102.7205 -34.5685 L97.7205 -31.5685 L92.7205 -34.5685 Z" clip-path="url(#clipPath2)" stroke="none"/>
      <path fill="none" d="M-190.3468 271.2945 L-83.8463 499.7134" clip-path="url(#clipPath2)" stroke="black"/>
      <path fill="black" d="M-80.4657 506.964 L-81.005 493.9752 L-84.2689 498.807 L-90.0682 498.201 Z" clip-path="url(#clipPath2)" stroke="none"/>
      <path fill="none" d="M80.0979 271.2945 L-43.8766 499.9313" clip-path="url(#clipPath2)" stroke="black"/>
      <path fill="black" d="M-47.6899 506.964 L-37.5745 498.7983 L-43.3999 499.0522 L-46.3653 494.0316 Z" clip-path="url(#clipPath2)" stroke="none"/>
      <path fill="none" d="M337.941 434.3344 L35.4288 513.2004" clip-path="url(#clipPath2)" stroke="black"/>
      <path fill="black" d="M27.6875 515.2186 L40.5607 517.0295 L36.3964 512.9481 L38.038 507.353 Z" clip-path="url(#clipPath2)" stroke="none"/>
      <path fill="none" d="M430.941 42.4315 L430.941 198.2945" clip-path="url(#clipPath2)" stroke="black"/>
      <path fill="black" d="M430.941 206.2945 L435.941 194.2945 L430.941 197.2945 L425.941 194.2945 Z" clip-path="url(#clipPath2)" stroke="none"/>
      <path fill="none" d="M430.941 271.2945 L430.941 369.589" clip-path="url(#clipPath2)" stroke="black"/>
      <path fill="black" d="M430.941 377.589 L435.941 365.589 L430.941 368.589 L425.941 365.589 Z" clip-path="url(#clipPath2)" stroke="none"/>
    </g>
  </g>
</svg>
